<svg xmlns="http://www.w3.org/2000/svg" viewBox="105 85 302 340" width="302" height="340" role="img" aria-label="Peek-a-Piece mark">
<title>Peek-a-Piece mark</title>
<circle cx="181.0" cy="143.0" r="46.0" fill="#26385A"/><circle cx="167.0" cy="127.0" r="14.0" fill="#FFFFFF"/><circle cx="285.0" cy="143.0" r="46.0" fill="#26385A"/><circle cx="271.0" cy="127.0" r="14.0" fill="#FFFFFF"/><path d="M117.0 184.0C193.6 184.0 270.1 184.0 349.0 184.0C349.0 242.0 349.0 260.6 358.3 272.2C381.5 286.1 395.4 258.2 395.4 300.0C395.4 341.8 381.5 313.9 358.3 327.8C349.0 339.4 349.0 358.0 349.0 416.0C272.4 416.0 195.9 416.0 117.0 416.0C117.0 358.0 117.0 339.4 126.3 327.8C149.5 313.9 163.4 341.8 163.4 300.0C163.4 258.2 149.5 286.1 126.3 272.2C117.0 260.6 117.0 242.0 117.0 184.0Z" fill="#1FA396"/><path d="M117.0 173.0C193.6 173.0 270.1 173.0 349.0 173.0C349.0 231.0 349.0 249.6 358.3 261.2C381.5 275.1 395.4 247.2 395.4 289.0C395.4 330.8 381.5 302.9 358.3 316.8C349.0 328.4 349.0 347.0 349.0 405.0C272.4 405.0 195.9 405.0 117.0 405.0C117.0 347.0 117.0 328.4 126.3 316.8C149.5 302.9 163.4 330.8 163.4 289.0C163.4 247.2 149.5 275.1 126.3 261.2C117.0 249.6 117.0 231.0 117.0 173.0Z" fill="#2EC4B6"/>
</svg>
